<svg id="Layer_2" data-name="Layer 2" xmlns="http://www.w3.org/2000/svg" viewBox="0 0 600 613"><defs><style>.cls-1{fill:#f52a3b;}.cls-2{fill:#fff;}</style></defs><title>Instagram</title><ellipse class="cls-1" cx="299.92" cy="304.16" rx="300.08" ry="301.26"/><path class="cls-2" d="M301.45,247.57a56.59,56.59,0,1,1-56.59,56.59h0a56.59,56.59,0,0,1,56.59-56.59m0-26A82.59,82.59,0,1,0,384,304.16,82.59,82.59,0,0,0,301.45,221.57Zm85.65-19.88A18.35,18.35,0,1,0,405.45,220,18.35,18.35,0,0,0,387.09,201.69Z"/><path class="cls-2" d="M376.39,169.57a58.12,58.12,0,0,1,58.12,58.12V380.63a58.12,58.12,0,0,1-58.12,58.12H223.45a58.12,58.12,0,0,1-58.12-58.12h0V227.69a58.12,58.12,0,0,1,58.12-58.12H376.39m0-26H223.45a84.36,84.36,0,0,0-84.12,84.12V380.63a84.36,84.36,0,0,0,84.12,84.12H376.39a84.36,84.36,0,0,0,84.12-84.12V227.69A84.36,84.36,0,0,0,376.39,143.57Z"/></svg>