<svg id="Layer_2" data-name="Layer 2" xmlns="http://www.w3.org/2000/svg" viewBox="0 0 600 613"><defs><style>.cls-1{fill:#001a52;}.cls-2{fill:#fff;}</style></defs><title>Like</title><ellipse class="cls-1" cx="300" cy="306.5" rx="297.77" ry="298.98"/><path class="cls-2" d="M204.39,415.32H157.94a10.56,10.56,0,0,1-10.62-10.62V260.51a10.56,10.56,0,0,1,10.62-10.62h46.44A10.56,10.56,0,0,1,215,260.51V404.69A10.56,10.56,0,0,1,204.39,415.32Z"/><path class="cls-2" d="M444.79,300.13v22.61a10.17,10.17,0,0,1-10.17,10.17H417.77v2.73H432a7.12,7.12,0,0,1,7.13,7.13v26.86a7.12,7.12,0,0,1-7.13,7.13H417.77v3.34h9.56a4.47,4.47,0,0,1,4.55,4.55v19a11.92,11.92,0,0,1-12,12H258A19.63,19.63,0,0,1,238.38,396V272.81a22.73,22.73,0,0,1,14.87-21.25c4.25-2.28,9.11-4.55,11.53-7.28,30.05-36.27,65-72.7,65-100.77,9.11-18.06,31.57-13.51,31.57,9,0,22.61-22.61,81.35-27,94.86a17.17,17.17,0,0,0-.61,2.28h93.19a12.24,12.24,0,0,1,12.29,12.29V283a7.12,7.12,0,0,1-7.13,7.13H417.77v3h19.88A6.9,6.9,0,0,1,444.79,300.13Z"/></svg>