<svg id="sRGB" xmlns="http://www.w3.org/2000/svg" viewBox="0 0 694.15 169.91"><defs><style>.cls-1{fill:#f52a3b;}</style></defs><title>Artboard 1</title><path class="cls-1" d="M610.36,169.44c-46.18,0-83.77-38-83.77-84.71A85.24,85.24,0,0,1,539,40.39a10.08,10.08,0,1,1,17.22,10.47,65.09,65.09,0,0,0-9.45,33.88c0,35.59,28.53,64.56,63.62,64.56S674,120.33,674,84.73s-28.56-64.58-63.64-64.58a62.2,62.2,0,0,0-29.06,7.12A10.08,10.08,0,0,1,572,9.4,83.44,83.44,0,0,1,610.35,0c46.21,0,83.8,38,83.8,84.73s-37.59,84.71-83.79,84.71"/><path class="cls-1" d="M273.62,4.88H201.83A10.07,10.07,0,0,0,192.54,11a10.06,10.06,0,0,0-.86,4.06V154.47a10.07,10.07,0,1,0,20.15,0V25h61.79a30.65,30.65,0,0,1,0,61.29H238.34a10.08,10.08,0,1,0,0,20.15h35.28a50.8,50.8,0,0,0,0-101.6"/><path class="cls-1" d="M314.47,164.83a10,10,0,0,1-7.12-3L277,131.5a10.08,10.08,0,0,1,14.26-14.24l30.35,30.37a10.08,10.08,0,0,1-7.13,17.2"/><path class="cls-1" d="M485.51,83.83H444.7a10.08,10.08,0,1,0,0,20.15h30.73v50.91a10.08,10.08,0,1,0,20.15,0v-61a10.08,10.08,0,0,0-10.08-10.08"/><path class="cls-1" d="M435.66,169.91c-46.21,0-83.79-38-83.79-84.73S389.46.46,435.66.46a82.47,82.47,0,0,1,50.06,16.79,10.08,10.08,0,1,1-12.14,16.08,62.5,62.5,0,0,0-37.92-12.73c-35.09,0-63.64,29-63.64,64.56s28.55,64.59,63.64,64.59a63.61,63.61,0,0,0,13.28-1.41,10.07,10.07,0,1,1,4.21,19.7,83.47,83.47,0,0,1-17.49,1.86"/><path class="cls-1" d="M81.75,164.53a10.07,10.07,0,0,1-10.07-10.08V94.28a10.08,10.08,0,0,1,20.15,0v60.18a10.08,10.08,0,0,1-10.08,10.08"/><path class="cls-1" d="M102.8,68.15a10.07,10.07,0,0,1-6.45-17.82L148,7.36a10.07,10.07,0,0,1,12.89,15.48l-51.64,43a10.06,10.06,0,0,1-6.44,2.33"/><path class="cls-1" d="M61.75,68.15a10,10,0,0,1-6.44-2.33l-51.67-43A10.07,10.07,0,1,1,16.52,7.36l51.68,43a10.07,10.07,0,0,1-6.45,17.82"/></svg>