<svg id="Layer_3" data-name="Layer 3" xmlns="http://www.w3.org/2000/svg" viewBox="0 0 600 613"><defs><style>.cls-1{fill:#f52a3b;}</style></defs><title>Yrgo</title><path class="cls-1" d="M298.19,590.16a35.76,35.76,0,0,1-35.76-35.76V340.19a35.76,35.76,0,1,1,71.52,0v214a35.8,35.8,0,0,1-35.76,35.94"/><path class="cls-1" d="M372.92,247.32A35.77,35.77,0,0,1,350,184L533.75,31.15a35.81,35.81,0,1,1,45.9,55L396,239a36,36,0,0,1-23.13,8.36"/><path class="cls-1" d="M227,247.32a35.5,35.5,0,0,1-23-8.36L20.29,86.13a35.81,35.81,0,1,1,45.9-55L250,184a36,36,0,0,1,4.63,50.53A36.44,36.44,0,0,1,227,247.32"/></svg>