<svg xmlns="http://www.w3.org/2000/svg" width="37" height="36" viewBox="0 0 37 36">
  <g fill="#FFFFFF">
    <path d="M17.6099907,11.8651082 C21.2010626,11.8651082 24.1122016,14.6730142 24.1122016,18.1367417 C24.1122016,21.6004692 21.2010626,24.4083752 17.6099907,24.4083752 C14.0189187,24.4083752 11.1077797,21.6004692 11.1077797,18.1367417 C11.1077797,14.6730142 14.0189187,11.8651082 17.6099907,11.8651082 L17.6099907,11.8651082 Z M17.6099907,8.9835469 C13.7717599,8.9835469 10.3114661,11.2136512 8.8426388,14.6339657 C7.37381148,18.0542802 8.18571107,21.9912325 10.8997501,24.6090278 C13.613789,27.2268232 17.6954839,28.0099317 21.2415467,26.5931911 C24.7876095,25.1764504 27.099704,21.8388634 27.099704,18.1367417 C27.099704,13.0815718 22.8510146,8.9835469 17.6099907,8.9835469 L17.6099907,8.9835469 Z M27.4511748,6.78 C26.2865028,6.78 25.3423496,7.6906722 25.3423496,8.81404329 C25.3423496,9.93741438 26.2865028,10.8480866 27.4511748,10.8480866 C28.6158468,10.8480866 29.56,9.93741438 29.56,8.81404329 C29.56,7.6906722 28.6158468,6.78 27.4511748,6.78 L27.4511748,6.78 Z"/>
    <path d="M26.7842857,2.95793975 C30.4000151,2.95793975 33.3311429,5.83811066 33.3311429,9.39098154 L33.3311429,26.3200389 C33.3311429,29.8729097 30.4000151,32.7530807 26.7842857,32.7530807 L9.55571429,32.7530807 C5.93998493,32.7530807 3.00885714,29.8729097 3.00885714,26.3200389 L3.00885714,9.39098154 C3.00885714,5.83811066 5.93998493,2.95793975 9.55571429,2.95793975 L26.7842857,2.95793975 L26.7842857,2.95793975 Z M26.7842857,0.08 L9.55571429,0.08 C4.32870578,0.094876671 0.0951398736,4.25484317 0.08,9.39098154 L0.08,26.3200389 C0.0951398736,31.4561772 4.32870578,35.6161437 9.55571429,35.6310204 L26.7842857,35.6310204 C32.0112942,35.6161437 36.2448601,31.4561772 36.26,26.3200389 L36.26,9.39098154 C36.2448601,4.25484317 32.0112942,0.094876671 26.7842857,0.08 L26.7842857,0.08 Z"/>
  </g>
</svg>
