<svg xmlns="http://www.w3.org/2000/svg" width="152" height="209" viewBox="0 0 152 209">
  <g fill="none" fill-rule="evenodd" transform="rotate(13 18.428 188.328)">
    <rect width="111.155" height="187.375" fill="#FFFFFF" stroke="#000000" stroke-width="1.404" rx=".702"/>
    <rect width="98.491" height="38.039" x="6.332" y="33.812" fill="#FFFFFF" stroke="#000000" stroke-width="1.404"/>
    <rect width="98.491" height="28.881" x="6.332" y="33.812" fill="#FFFFFF" stroke="#000000" stroke-width="1.404"/>
    <rect width="16.181" height="31.699" x="87.939" y="145.815" fill="#FFFFFF" stroke="#000000" stroke-width="1.404"/>
    <g fill="#FFFFFF" stroke="#000000" stroke-width="1.404" transform="translate(7.035 77.486)">
      <rect width="16.181" height="13.384" y="13.384" rx=".702"/>
      <rect width="16.181" height="9.399" rx=".702"/>
      <rect width="16.181" height="13.384" y="31.699" rx=".702"/>
      <rect width="16.181" height="13.384" y="50.014" rx=".702"/>
      <rect width="16.181" height="13.384" y="68.329" rx=".702"/>
      <rect width="16.181" height="13.384" y="86.643" rx=".702"/>
      <rect width="16.181" height="13.384" x="20.402" y="13.384" rx=".702"/>
      <rect width="16.181" height="9.399" x="20.402" rx=".702"/>
      <rect width="16.181" height="13.384" x="20.402" y="31.699" rx=".702"/>
      <rect width="16.181" height="13.384" x="20.402" y="50.014" rx=".702"/>
      <rect width="16.181" height="13.384" x="20.402" y="68.329" rx=".702"/>
      <rect width="16.181" height="13.384" x="20.402" y="86.643" rx=".702"/>
      <rect width="16.181" height="13.384" x="40.804" y="13.384" rx=".702"/>
      <rect width="16.181" height="9.399" x="40.804" rx=".702"/>
      <rect width="16.181" height="13.384" x="40.804" y="31.699" rx=".702"/>
      <rect width="16.181" height="13.384" x="40.804" y="50.014" rx=".702"/>
      <rect width="16.181" height="13.384" x="40.804" y="68.329" rx=".702"/>
      <rect width="16.181" height="13.384" x="40.804" y="86.643" rx=".702"/>
      <rect width="16.181" height="13.384" x="60.502" y="13.384" rx=".702"/>
      <rect width="16.181" height="9.399" x="60.502" rx=".702"/>
      <rect width="16.181" height="13.384" x="61.205" y="31.699" rx=".702"/>
      <rect width="16.181" height="13.384" x="61.205" y="50.014" rx=".702"/>
      <rect width="16.181" height="13.384" x="61.205" y="68.329" rx=".702"/>
      <rect width="16.181" height="13.384" x="61.205" y="86.643" rx=".702"/>
      <rect width="16.181" height="13.384" x="80.904" y="13.384" rx=".702"/>
      <rect width="16.181" height="9.399" x="80.904" rx=".702"/>
      <rect width="16.181" height="13.384" x="80.904" y="31.699" rx=".702"/>
      <rect width="16.181" height="13.384" x="80.904" y="50.014" rx=".702"/>
      <rect width="16.181" height="31.699" x="80.904" y="68.329" rx=".702"/>
    </g>
    <g stroke="#000000" transform="translate(57.688 9.157)">
      <rect width="43.618" height="15.497" stroke-width="1.404"/>
      <path stroke-width=".702" d="M10.2008949.336895829L10.2008949 15.4972081M22.1605648.336895829L22.1605648 15.4972081M34.1202348.336895829L34.1202348 15.4972081" stroke-linecap="square"/>
    </g>
    <g fill="#000000" stroke="#000000" stroke-width=".702" transform="translate(92.16 158.494)">
      <rect width="1" height="7.044" x="3.518"/>
      <rect width="1" height="7.044" x="3.518" transform="rotate(90 3.87 3.522)"/>
    </g>
    <path fill="#000000" d="M28.6298053 47.9975109L29.0892962 48.4570018 29.0892962 54.8898745C28.9361318 55.5025321 28.5532266 55.8854374 27.940569 56.0386018L27.2513326 54.2006381 27.2513326 49.3759836 28.6298053 47.9975109zM27.4810781 56.0386018L20.5887144 56.0386018C19.9760568 55.8854374 19.5931515 55.5025321 19.4399871 54.8898745L21.2779508 54.2006381 26.7918417 54.2006381 27.4810781 56.0386018zM19.4399871 54.4303836L19.4399871 48.4570018 19.8994781 47.9975109 21.2779508 49.3759836 21.2779508 53.7411472 19.4399871 54.4303836zM26.7918417 41.3348927L21.3009253 41.3348927 19.4629617 40.6456563C19.6161261 40.0329987 19.9990314 39.6500935 20.611689 39.496929L27.4810781 39.496929 26.7918417 41.3348927zM21.2779508 41.7943836L21.2779508 46.1595472 19.8994781 47.53802 19.4399871 47.078529 19.4399871 41.1051472 21.2779508 41.7943836zM27.2513326 46.1595472L27.2513326 41.3348927 27.940569 39.496929C28.5532266 39.6500935 28.9361318 40.0329987 29.0892962 40.6456563L29.0892962 47.078529 28.6298053 47.53802 27.2513326 46.1595472zM40.576569 47.9975109L41.0360599 48.4570018 41.0360599 54.8898745C40.8828955 55.5025321 40.4999902 55.8854374 39.8873326 56.0386018L39.1980962 54.2006381 39.1980962 49.3759836 40.576569 47.9975109zM39.4278417 56.0386018L32.5354781 56.0386018C31.9228204 55.8854374 31.5399152 55.5025321 31.3867508 54.8898745L33.2247144 54.2006381 38.7386053 54.2006381 39.4278417 56.0386018zM31.3867508 54.4303836L31.3867508 48.4570018 31.8462417 47.9975109 33.2247144 49.3759836 33.2247144 53.7411472 31.3867508 54.4303836zM38.7386053 41.3348927L33.247689 41.3348927 31.4097253 40.6456563C31.5628897 40.0329987 31.945795 39.6500935 32.5584526 39.496929L39.4278417 39.496929 38.7386053 41.3348927zM33.2247144 41.7943836L33.2247144 46.1595472 31.8462417 47.53802 31.3867508 47.078529 31.3867508 41.1051472 33.2247144 41.7943836zM39.1980962 46.1595472L39.1980962 41.3348927 39.8873326 39.496929C40.4999902 39.6500935 40.8828955 40.0329987 41.0360599 40.6456563L41.0360599 47.078529 40.576569 47.53802 39.1980962 46.1595472zM52.5233326 47.9975109L52.9828235 48.4570018 52.9828235 54.8898745C52.8296591 55.5025321 52.4467538 55.8854374 51.8340962 56.0386018L51.1448599 54.2006381 51.1448599 49.3759836 52.5233326 47.9975109zM51.3746053 56.0386018L44.4822417 56.0386018C43.8695841 55.8854374 43.4866788 55.5025321 43.3335144 54.8898745L45.1714781 54.2006381 50.685369 54.2006381 51.3746053 56.0386018zM43.3335144 54.4303836L43.3335144 48.4570018 43.7930053 47.9975109 45.1714781 49.3759836 45.1714781 53.7411472 43.3335144 54.4303836zM50.685369 41.3348927L45.1944526 41.3348927 43.356489 40.6456563C43.5096534 40.0329987 43.8925586 39.6500935 44.5052162 39.496929L51.3746053 39.496929 50.685369 41.3348927zM45.1714781 41.7943836L45.1714781 46.1595472 43.7930053 47.53802 43.3335144 47.078529 43.3335144 41.1051472 45.1714781 41.7943836zM51.1448599 46.1595472L51.1448599 41.3348927 51.8340962 39.496929C52.4467538 39.6500935 52.8296591 40.0329987 52.9828235 40.6456563L52.9828235 47.078529 52.5233326 47.53802 51.1448599 46.1595472zM64.4700962 47.9975109L64.9295871 48.4570018 64.9295871 54.8898745C64.7764227 55.5025321 64.3935175 55.8854374 63.7808599 56.0386018L63.0916235 54.2006381 63.0916235 49.3759836 64.4700962 47.9975109zM63.321369 56.0386018L56.4290053 56.0386018C55.8163477 55.8854374 55.4334425 55.5025321 55.2802781 54.8898745L57.1182417 54.2006381 62.6321326 54.2006381 63.321369 56.0386018zM55.2802781 54.4303836L55.2802781 48.4570018 55.739769 47.9975109 57.1182417 49.3759836 57.1182417 53.7411472 55.2802781 54.4303836zM62.6321326 41.3348927L57.1412162 41.3348927 55.3032526 40.6456563C55.456417 40.0329987 55.8393223 39.6500935 56.4519799 39.496929L63.321369 39.496929 62.6321326 41.3348927zM57.1182417 41.7943836L57.1182417 46.1595472 55.739769 47.53802 55.2802781 47.078529 55.2802781 41.1051472 57.1182417 41.7943836zM63.0916235 46.1595472L63.0916235 41.3348927 63.7808599 39.496929C64.3935175 39.6500935 64.7764227 40.0329987 64.9295871 40.6456563L64.9295871 47.078529 64.4700962 47.53802 63.0916235 46.1595472zM76.4168599 47.9975109L76.8763508 48.4570018 76.8763508 54.8898745C76.7231864 55.5025321 76.3402811 55.8854374 75.7276235 56.0386018L75.0383871 54.2006381 75.0383871 49.3759836 76.4168599 47.9975109zM75.2681326 56.0386018L68.375769 56.0386018C67.7631114 55.8854374 67.3802061 55.5025321 67.2270417 54.8898745L69.0650053 54.2006381 74.5788962 54.2006381 75.2681326 56.0386018zM67.2270417 54.4303836L67.2270417 48.4570018 67.6865326 47.9975109 69.0650053 49.3759836 69.0650053 53.7411472 67.2270417 54.4303836zM74.5788962 41.3348927L69.0879799 41.3348927 67.2500162 40.6456563C67.4031806 40.0329987 67.7860859 39.6500935 68.3987435 39.496929L75.2681326 39.496929 74.5788962 41.3348927zM69.0650053 41.7943836L69.0650053 46.1595472 67.6865326 47.53802 67.2270417 47.078529 67.2270417 41.1051472 69.0650053 41.7943836zM75.0383871 46.1595472L75.0383871 41.3348927 75.7276235 39.496929C76.3402811 39.6500935 76.7231864 40.0329987 76.8763508 40.6456563L76.8763508 47.078529 76.4168599 47.53802 75.0383871 46.1595472zM88.3636235 47.9975109L88.8231144 48.4570018 88.8231144 54.8898745C88.66995 55.5025321 88.2870448 55.8854374 87.6743871 56.0386018L86.9851508 54.2006381 86.9851508 49.3759836 88.3636235 47.9975109zM87.2148962 56.0386018L80.3225326 56.0386018C79.709875 55.8854374 79.3269697 55.5025321 79.1738053 54.8898745L81.011769 54.2006381 86.5256599 54.2006381 87.2148962 56.0386018zM79.1738053 54.4303836L79.1738053 48.4570018 79.6332962 47.9975109 81.011769 49.3759836 81.011769 53.7411472 79.1738053 54.4303836zM86.5256599 41.3348927L81.0347435 41.3348927 79.1967799 40.6456563C79.3499443 40.0329987 79.7328495 39.6500935 80.3455071 39.496929L87.2148962 39.496929 86.5256599 41.3348927zM81.011769 41.7943836L81.011769 46.1595472 79.6332962 47.53802 79.1738053 47.078529 79.1738053 41.1051472 81.011769 41.7943836zM86.9851508 46.1595472L86.9851508 41.3348927 87.6743871 39.496929C88.2870448 39.6500935 88.66995 40.0329987 88.8231144 40.6456563L88.8231144 47.078529 88.3636235 47.53802 86.9851508 46.1595472zM100.310387 47.9975109L100.769878 48.4570018 100.769878 54.8898745C100.616714 55.5025321 100.233808 55.8854374 99.6211508 56.0386018L98.9319144 54.2006381 98.9319144 49.3759836 100.310387 47.9975109zM99.1616599 56.0386018L92.2692962 56.0386018C91.6566386 55.8854374 91.2737334 55.5025321 91.120569 54.8898745L92.9585326 54.2006381 98.4724235 54.2006381 99.1616599 56.0386018zM91.120569 54.4303836L91.120569 48.4570018 91.5800599 47.9975109 92.9585326 49.3759836 92.9585326 53.7411472 91.120569 54.4303836zM98.4724235 41.3348927L92.9815071 41.3348927 91.1435435 40.6456563C91.2967079 40.0329987 91.6796132 39.6500935 92.2922708 39.496929L99.1616599 39.496929 98.4724235 41.3348927zM92.9585326 41.7943836L92.9585326 46.1595472 91.5800599 47.53802 91.120569 47.078529 91.120569 41.1051472 92.9585326 41.7943836zM98.9319144 46.1595472L98.9319144 41.3348927 99.6211508 39.496929C100.233808 39.6500935 100.616714 40.0329987 100.769878 40.6456563L100.769878 47.078529 100.310387 47.53802 98.9319144 46.1595472zM12.6910095 131.869723C13.2668718 131.287463 13.9994856 130.996337 14.8888728 130.996337 16.0789881 130.996337 16.9491669 131.386637 17.4994353 132.167251 17.8033626 132.605546 17.9665211 133.045434 17.9889158 133.486928L16.5108767 133.486928C16.4148997 133.147809 16.291731 132.891874 16.141367 132.719116 15.8726312 132.411989 15.4743325 132.258428 14.9464587 132.258428 14.4089873 132.258428 13.9850951 132.475173 13.6747693 132.90867 13.3644435 133.342166 13.209283 133.95561 13.209283 134.74902 13.209283 135.54243 13.3732413 136.136679 13.7011628 136.531785 14.0290844 136.92689 14.4457785 137.12444 14.9512576 137.12444 15.4695336 137.12444 15.8646332 136.954883 16.1365681 136.615764 16.2869322 136.433408 16.4117004 136.159877 16.5108767 135.795165L17.9745193 135.795165C17.8465499 136.56618 17.5194331 137.193221 16.9931589 137.676305 16.4668848 138.15939 15.7926562 138.400928 14.9704529 138.400928 13.9530962 138.400928 13.1532996 138.074611 12.5710388 137.421967 11.9887781 136.766124 11.6976521 135.867153 11.6976521 134.725026 11.6976521 133.490121 12.0287679 132.538363 12.6910095 131.869723zM11.4449542 153.166798L12.9833213 153.166798 12.2264776 150.781095 11.4449542 153.166798zM11.5231065 149.394919L12.9545284 149.394919 15.1016612 155.457896 13.7278252 155.457896 13.3370635 154.211572 11.1035518 154.211572 10.6839971 155.457896 9.35952056 155.457896 11.5231065 149.394919zM15.757044 150.028365C16.2506402 149.529284 16.8785948 149.279747 17.6409268 149.279747 18.6610256 149.279747 19.4068932 149.614291 19.8785518 150.283388 20.1390609 150.65907 20.2789111 151.036117 20.2981065 151.41454L19.0312158 151.41454C18.9489498 151.123867 18.8433766 150.904494 18.7144932 150.756415 18.4841483 150.493164 18.1427494 150.36154 17.6902862 150.36154 17.2295964 150.36154 16.8662601 150.547322 16.6002666 150.91889 16.3342731 151.290458 16.2012783 151.816267 16.2012783 152.496333 16.2012783 153.176399 16.341814 153.685755 16.6228897 154.024417 16.9039653 154.363079 17.2611316 154.532408 17.6943994 154.532408 18.138636 154.532408 18.4772928 154.387073 18.7103799 154.0964 18.8392634 153.940094 18.9462076 153.70564 19.0312158 153.393029L20.2857666 153.393029C20.1760786 154.053899 19.8956927 154.591362 19.4446006 155.005435 18.9935085 155.419507 18.4155983 155.62654 17.7108526 155.62654 16.8388326 155.62654 16.1532926 155.34684 15.6542119 154.787431 15.1551313 154.22528 14.9055948 153.454733 14.9055948 152.475767 14.9055948 151.417277 15.1894083 150.601485 15.757044 150.028365z"/>
  </g>
</svg>
