<svg xmlns="http://www.w3.org/2000/svg" width="305" height="209" viewBox="0 0 305 209">
  <g fill="none" fill-rule="evenodd" stroke="#000000" transform="rotate(14 47.729 115.621)">
    <path fill="#FFFFFF" stroke-width="1.404" d="M280.584375 34.3773295C275.935501 34.3773295 272.166843 30.2939354 272.166843 25.2568135 272.166843 20.2196916 275.935501 16.1362975 280.584375 16.1362975 285.233249 16.1362975 289.001906 20.2196916 289.001906 25.2568135 289.001906 30.2939354 285.233249 34.3773295 280.584375 34.3773295zM280.935105 30.1678606C283.453245 30.1678606 285.494601 27.96911 285.494601 25.2568135 285.494601 22.5445171 283.453245 20.3457665 280.935105 20.3457665 278.416965 20.3457665 276.375609 22.5445171 276.375609 25.2568135 276.375609 27.96911 278.416965 30.1678606 280.935105 30.1678606zM8.41753124 34.3773295C3.76865711 34.3773295 0 30.2939354 0 25.2568135 0 20.2196916 3.76865711 16.1362975 8.41753124 16.1362975 13.0664054 16.1362975 16.8350625 20.2196916 16.8350625 25.2568135 16.8350625 30.2939354 13.0664054 34.3773295 8.41753124 34.3773295zM8.76826171 30.1678606C11.2864019 30.1678606 13.3277578 27.96911 13.3277578 25.2568135 13.3277578 22.5445171 11.2864019 20.3457665 8.76826171 20.3457665 6.25012155 20.3457665 4.20876562 22.5445171 4.20876562 25.2568135 4.20876562 27.96911 6.25012155 30.1678606 8.76826171 30.1678606z"/>
    <rect width="271.465" height="144.525" x="9.119" y="7.717" fill="#FFFFFF" stroke-width="1.404" rx=".702"/>
    <ellipse cx="32.969" cy="25.257" fill="#FFFFFF" stroke-width="1.404" rx="7.716" ry="7.717"/>
    <rect width="271.465" height="95.415" x="9.119" y="43.498" fill="#FFFFFF" stroke-width="1.404"/>
    <ellipse cx="164.843" cy="84.891" fill="#FFFFFF" stroke-width="1.404" rx="56.117" ry="56.126"/>
    <ellipse cx="164.843" cy="84.891" fill="#FFFFFF" stroke-width="1.404" rx="51.908" ry="51.917"/>
    <ellipse cx="165.194" cy="85.242" fill="#FFFFFF" stroke-width="1.404" rx="49.453" ry="49.461"/>
    <rect width="34.372" height="21.749" x="232.184" y="14.733" fill="#FFFFFF" stroke-width="1.404" rx=".702"/>
    <rect width="11.925" height="7.717" x="243.407" y="21.749" fill="#FFFFFF" stroke-width="1.404" rx=".702"/>
    <rect width="25.954" height="7.717" x="36.476" fill="#FFFFFF" stroke-width="1.404" rx=".702"/>
    <rect width="37.177" height="7.717" x="69.445" fill="#FFFFFF" stroke-width="1.404" rx=".702"/>
    <g stroke-width=".702" transform="translate(72.25 .702)" stroke-linecap="square">
      <path d="M1.05219141.350789077L1.05219141 7.01578154M5.26095703.350789077L5.26095703 7.01578154M9.46972265.350789077L9.46972265 7.01578154M13.6784883.350789077L13.6784883 7.01578154M17.8872539.350789077L17.8872539 7.01578154M22.0960195.350789077L22.0960195 7.01578154M26.3047851.350789077L26.3047851 7.01578154M30.5135507.350789077L30.5135507 7.01578154"/>
    </g>
  </g>
</svg>
