<svg xmlns="http://www.w3.org/2000/svg" width="304" height="209" viewBox="0 0 304 209">
  <path fill="#35D4D1" fill-rule="evenodd" stroke="#35D4D1" stroke-width="1.404" d="M280.584375,16.1362975 C285.233249,16.1362975 289.001906,20.2196916 289.001906,25.2568135 C289.001906,30.2939354 285.233249,34.3773295 280.584375,34.3773295 L280.584375,151.533008 C280.584375,151.924827 280.277752,152.242459 279.876225,152.242459 L9.82714179,152.242459 C9.43604156,152.242459 9.11899218,151.924193 9.11899218,151.533008 L9.11899218,34.3461117 C8.8876971,34.3667867 8.65375047,34.3773295 8.41753124,34.3773295 C3.76865711,34.3773295 0,30.2939354 0,25.2568135 C0,20.2196916 3.76865711,16.1362975 8.41753124,16.1362975 C8.65375047,16.1362975 8.8876971,16.1468403 9.11899218,16.1675154 L9.11899218,8.42681098 C9.11899218,8.03499186 9.4256145,7.71735969 9.82714179,7.71735969 L279.876225,7.71735969 C280.267325,7.71735969 280.584375,8.03562611 280.584375,8.42681098 L280.584375,16.1362975 Z M280.584375,30.1535469 C280.70013,30.1630316 280.817094,30.1678606 280.935105,30.1678606 C283.453245,30.1678606 285.494601,27.96911 285.494601,25.2568135 C285.494601,22.5445171 283.453245,20.3457665 280.935105,20.3457665 C280.817094,20.3457665 280.70013,20.3505955 280.584375,20.3600801 L280.584375,30.1535469 Z M9.11899218,20.3600801 C9.00323652,20.3505955 8.88627269,20.3457665 8.76826171,20.3457665 C6.25012155,20.3457665 4.20876562,22.5445171 4.20876562,25.2568135 C4.20876562,27.96911 6.25012155,30.1678606 8.76826171,30.1678606 C8.88627269,30.1678606 9.00323652,30.1630316 9.11899218,30.1535469 L9.11899218,20.3600801 Z M36.4759687,0.698475424 C36.4759687,0.312718099 36.7855257,0 37.170177,0 L61.7358151,0 C62.1192157,0 62.4300234,0.312087903 62.4300234,0.698475424 L62.4300234,7.01888427 C62.4300234,7.40464159 62.1204664,7.71735969 61.7358151,7.71735969 L37.170177,7.71735969 C36.7867763,7.71735969 36.4759687,7.40527179 36.4759687,7.01888427 L36.4759687,0.698475424 Z M69.4446327,0.698475424 C69.4446327,0.312718099 69.7660338,0 70.1541038,0 L105.912591,0 C106.304421,0 106.622062,0.312087903 106.622062,0.698475424 L106.622062,7.01888427 C106.622062,7.40464159 106.300661,7.71735969 105.912591,7.71735969 L70.1541038,7.71735969 C69.7622737,7.71735969 69.4446327,7.40527179 69.4446327,7.01888427 L69.4446327,0.698475424 Z" transform="rotate(14 44.484 113.124)"/>
</svg>
