<svg xmlns="http://www.w3.org/2000/svg" width="237" height="231" viewBox="0 0 237 231">
  <g fill="#35D4D1" fill-rule="evenodd" stroke="#35D4D1" transform="rotate(52 94.009 184.815)">
    <g stroke-width="1.404">
      <rect width="8.405" height="29.486" x="78.449" y="51.25"/>
      <rect width="8.405" height="29.486" x="78.449"/>
      <path d="M86.5039718,37.5597974 L94.9092161,37.5597974 L94.9092161,61.4227399 C94.9092161,61.8142477 94.5887214,62.1316274 94.2132636,62.1316274 L93.153639,62.1316274 C92.769275,62.1316274 92.3543486,61.8452698 92.2169199,61.4644436 L86.7447384,46.3005825 C86.6117667,45.9321071 86.5039718,45.3267627 86.5039718,44.931043 L86.5039718,37.5597974 Z" transform="matrix(0 1 1 0 40.86 -40.86)"/>
      <path d="M86.5039718,14.3920719 L94.9092161,14.3920719 L94.9092161,38.2550144 C94.9092161,38.6465222 94.5887214,38.963902 94.2132636,38.963902 L93.153639,38.963902 C92.769275,38.963902 92.3543486,38.6775443 92.2169199,38.2967181 L86.7447384,23.132857 C86.6117667,22.7643816 86.5039718,22.1590372 86.5039718,21.7633175 L86.5039718,14.3920719 Z" transform="rotate(-90 90.707 26.678)"/>
      <rect width="28.017" height="271.694" x="54.634"/>
      <path d="M0,7.71687744 C0,6.94455866 0.614868489,6.19789281 1.38445755,6.0469738 L30.8356453,0.271496783 C31.6002601,0.12155325 32.8429747,0 33.622198,0 L54.6340875,0 L54.6340875,16.8492549 L1.40541588,16.8492549 C0.629226123,16.8492549 0,16.2220433 0,15.4508481 L0,7.71687744 Z"/>
      <path d="M0,58.9666944 C0,58.1943757 0.614868489,57.4477098 1.38445755,57.2967908 L30.8356453,51.5213138 C31.6002601,51.3713702 32.8429747,51.249817 33.622198,51.249817 L54.6340875,51.249817 L54.6340875,68.0990719 L1.40541588,68.0990719 C0.629226123,68.0990719 0,67.4718603 0,66.700665 L0,58.9666944 Z" transform="matrix(1 0 0 -1 0 119.349)"/>
      <rect width="10.507" height="54.76" x="44.128" y="68.099"/>
      <rect width="10.507" height="54.76" x="77.749" y="68.099"/>
    </g>
    <rect width="5.603" height="3.51" x="88.255" y="89.863" stroke-width="1.404"/>
    <rect width="4.203" height="9.127" x="93.158" y="87.054" stroke-width="1.404"/>
    <path stroke-width=".702" d="M94.2087791 89.5116667L97.3607456 89.5116667M94.2087791 91.6178235L97.3607456 91.6178235M94.2087791 93.7239804L97.3607456 93.7239804" stroke-linecap="square"/>
    <ellipse cx="61.288" cy="262.919" stroke-width="1.404" rx="3.152" ry="3.159"/>
  </g>
</svg>
