<svg xmlns="http://www.w3.org/2000/svg" width="236" height="231" viewBox="0 0 236 231">
  <g fill="none" fill-rule="evenodd" stroke="#000000" transform="rotate(52 93.773 184.473)">
    <g fill="#FFFFFF" stroke-width="1.404">
      <rect width="8.405" height="29.486" x="78.449" y="51.25"/>
      <rect width="8.405" height="29.486" x="78.449"/>
      <path d="M86.5039718,37.5597974 L94.9092161,37.5597974 L94.9092161,61.4227399 C94.9092161,61.8142477 94.5887214,62.1316274 94.2132636,62.1316274 L93.153639,62.1316274 C92.769275,62.1316274 92.3543486,61.8452698 92.2169199,61.4644436 L86.7447384,46.3005825 C86.6117667,45.9321071 86.5039718,45.3267627 86.5039718,44.931043 L86.5039718,37.5597974 Z" transform="matrix(0 1 1 0 40.86 -40.86)"/>
      <path d="M86.5039718,14.3920719 L94.9092161,14.3920719 L94.9092161,38.2550144 C94.9092161,38.6465222 94.5887214,38.963902 94.2132636,38.963902 L93.153639,38.963902 C92.769275,38.963902 92.3543486,38.6775443 92.2169199,38.2967181 L86.7447384,23.132857 C86.6117667,22.7643816 86.5039718,22.1590372 86.5039718,21.7633175 L86.5039718,14.3920719 Z" transform="rotate(-90 90.707 26.678)"/>
      <path d="M54.6340875.95807864e-13L82.6515682.95807864e-13 82.6515682 271.694235 54.6340875 271.694235 54.6340875.95807864e-13zM61.2882392 266.077817C63.0290222 266.077817 64.4402057 264.663379 64.4402057 262.918582 64.4402057 261.173784 63.0290222 259.759346 61.2882392 259.759346 59.5474561 259.759346 58.1362726 261.173784 58.1362726 262.918582 58.1362726 264.663379 59.5474561 266.077817 61.2882392 266.077817zM0 7.71687744C0 6.94455866.614868489 6.19789281 1.38445755 6.0469738L30.8356453.271496783C31.6002601.12155325 32.8429747 0 33.622198 0L54.6340875 0 54.6340875 16.8492549 1.40541588 16.8492549C.629226123 16.8492549 0 16.2220433 0 15.4508481L0 7.71687744z"/>
      <path d="M4.54747351e-13,58.9666944 C4.54747351e-13,58.1943757 0.614868489,57.4477098 1.38445755,57.2967908 L30.8356453,51.5213138 C31.6002601,51.3713702 32.8429747,51.249817 33.622198,51.249817 L54.6340875,51.249817 L54.6340875,68.0990719 L1.40541588,68.0990719 C0.629226123,68.0990719 4.54747351e-13,67.4718603 4.54747351e-13,66.700665 L4.54747351e-13,58.9666944 Z" transform="matrix(1 0 0 -1 0 119.349)"/>
      <rect width="10.507" height="54.76" x="44.128" y="68.099"/>
      <rect width="10.507" height="54.76" x="77.749" y="68.099"/>
    </g>
    <rect width="5.603" height="3.51" x="88.255" y="89.863" fill="#FFFFFF" stroke-width="1.404"/>
    <rect width="4.203" height="9.127" x="93.158" y="87.054" fill="#FFFFFF" stroke-width="1.404"/>
    <path stroke-width=".702" d="M94.2087791 89.5116667L97.3607456 89.5116667M94.2087791 91.6178235L97.3607456 91.6178235M94.2087791 93.7239804L97.3607456 93.7239804" stroke-linecap="square"/>
    <g stroke-width="1.404" transform="matrix(-1 0 0 1 67.942 33.699)" stroke-linecap="square">
      <path d="M12.9580849.702052288L5.60349615.702052288M12.9580849 34.4005621L5.60349615 34.4005621M12.9580849 68.0990719L0 68.0990719M12.9580849 17.5513072L0 17.5513072M12.9580849 51.249817L5.60349615 51.249817M12.9580849 84.9483268L5.60349615 84.9483268M12.9580849 9.12667974L5.60349615 9.12667974M12.9580849 42.8251895L0 42.8251895M12.9580849 76.5236993L5.60349615 76.5236993M12.9580849 25.9759346L5.60349615 25.9759346M12.9580849 59.6744444L5.60349615 59.6744444M12.9580849 93.3729542L0 93.3729542M12.9580849 101.797582L5.60349615 101.797582"/>
    </g>
    <g stroke-width="1.404" transform="matrix(-1 0 0 1 67.942 134.794)" stroke-linecap="square">
      <path d="M12.9580849.702052288L5.60349615.702052288M12.9580849 34.4005621L5.60349615 34.4005621M12.9580849 68.0990719L0 68.0990719M12.9580849 17.5513072L0 17.5513072M12.9580849 51.249817L5.60349615 51.249817M12.9580849 84.9483268L5.60349615 84.9483268M12.9580849 9.12667974L5.60349615 9.12667974M12.9580849 42.8251895L0 42.8251895M12.9580849 76.5236993L5.60349615 76.5236993M12.9580849 25.9759346L5.60349615 25.9759346M12.9580849 59.6744444L5.60349615 59.6744444M12.9580849 93.3729542L0 93.3729542M12.9580849 101.797582L5.60349615 101.797582"/>
    </g>
  </g>
</svg>
