<svg xmlns="http://www.w3.org/2000/svg" width="260" height="304" viewBox="0 0 260 304">
  <g fill="none" fill-rule="evenodd" stroke="#000000" stroke-width="1.516" transform="rotate(-37 101.574 100.238)">
    <path fill="#FFFFFF" d="M47.4446167,160.484962 L157.100838,126.323958 L124.047851,237.170456 C124.047851,237.170456 114.635691,229.126523 96.7278166,229.126523 C78.8199423,229.126523 50.2826561,233.256844 50.2826561,233.256844 C50.2826561,233.256844 52.8014862,201.803141 52.8014862,185.153023 C52.8014862,168.502905 47.4446167,160.484962 47.4446167,160.484962 Z" transform="rotate(-45 102.273 181.747)"/>
    <path fill="#FFFFFF" d="M99.2424242,205.52349 C123.933047,205.52349 157.575758,205.52349 157.575758,205.52349 C186.363636,185.04698 200,162.624052 200,116.791946 C200,46.6351033 159.073272,0 99.2424242,0 C39.4115763,0 0,46.6351033 0,116.791946 C0,165.966211 17.4242424,191.872483 47.7272727,205.52349 C47.7272727,205.52349 77.9442323,205.52349 99.2424242,205.52349 Z"/>
    <rect width="37.121" height="133.477" x="81.818" y="205.523" fill="#FFFFFF" rx=".758"/>
    <path d="M92.4242424 205.902685L92.4242424 339M107.575758 205.902685L107.575758 339" stroke-linecap="square"/>
    <ellipse cx="25" cy="251.785" fill="#FFFFFF" rx="25" ry="25.027"/>
  </g>
</svg>
