<svg xmlns="http://www.w3.org/2000/svg" width="197" height="146" viewBox="0 0 197 146">
  <g fill="none" fill-rule="evenodd" stroke="#000000" stroke-width="1.264" transform="rotate(8 93.329 117.646)">
    <rect width="11.963" height="3.507" x="90.777" fill="#FFFFFF" rx=".632"/>
    <rect width="5.63" height="9.821" x="94.295" y="3.507" fill="#FFFFFF"/>
    <path fill="#000000" d="M24.7541129,94.0594395 C21.7659008,92.7899855 5.62955576,111.197068 5.62955576,114.370703 C5.62955576,117.544338 24.1564705,134.681966 100.057057,134.681966 C175.957643,134.681966 191.496345,123.256881 192.093988,120.083246 C192.69163,116.909611 174.762358,95.9636204 171.774146,95.9636204 C147.270807,101.041436 135.243067,104.21502 100.057057,103.580344 C64.4213095,102.937556 50.4527365,102.31089 24.7541129,94.0594395 Z"/>
    <path fill="#FFFFFF" d="M20.2792474,97.5667824 C17.110615,96.2973284 2.24657952e-16,114.704411 0,117.878046 C0,121.051681 19.6455209,138.189309 100.128784,138.189309 C180.612047,138.189309 197.088935,126.764224 197.722662,123.590589 C198.356388,120.416954 179.344594,99.4709633 176.175961,99.4709633 C150.193176,104.548779 137.439233,107.722363 100.128784,107.087687 C62.3414445,106.444899 47.529486,105.818233 20.2792474,97.5667824 Z"/>
    <path fill="#FFFFFF" d="M176.627312,93.4906837 C176.627312,88.5481537 172.68284,83.0916547 170.597081,81.6035438 C168.511323,80.115433 36.7156004,73.9874402 27.775826,81.6035438 C25.5667656,83.485519 21.1108341,88.0671253 21.1108341,93.4906837 C21.1108341,107.880379 176.627312,108.506018 176.627312,93.4906837 Z"/>
    <path fill="#FFFFFF" d="M170.997756,80.7105408 C170.997756,48.4786346 146.582297,28.058743 97.6681012,28.058743 C48.7539055,28.058743 28.1477788,48.4786346 28.1477788,80.7105408 C28.1477788,95.300798 170.997756,95.935157 170.997756,80.7105408 Z"/>
    <rect width="16.185" height="13.328" x="89.369" y="13.328" fill="#FFFFFF" rx=".632"/>
    <path fill="#FFFFFF" d="M85.1470309,26.5396691 C85.1470309,26.1905919 85.4225158,25.9291327 85.7760551,25.9562321 C85.7760551,25.9562321 93.2792989,26.5545158 97.0316486,26.5545158 C100.783998,26.5545158 107.031368,25.9650176 107.031368,25.9650176 C107.381453,25.9333117 107.665254,26.1855767 107.665254,26.5396691 L107.665254,31.7446177 C107.665254,32.0936949 107.394906,32.4462389 107.046341,32.530176 C107.046341,32.530176 102.942604,33.6704916 97.0316486,33.6704916 C91.1206934,33.6704916 85.7492127,32.4983967 85.7492127,32.4983967 C85.4166369,32.4311732 85.1470309,32.09871 85.1470309,31.7446177 L85.1470309,26.5396691 Z"/>
  </g>
</svg>
