<svg xmlns="http://www.w3.org/2000/svg" width="159" height="213" viewBox="0 0 159 213">
  <g fill="none" fill-rule="evenodd" transform="rotate(-34 59.108 30.32)">
    <path fill="#F52A3B" stroke="#F52A3B" stroke-width="1.404" d="M57.5663715,143.342131 L57.917386,143.342131 L57.917386,144.747446 L57.5663715,144.747446 L57.5663715,151.774021 L20.3588387,151.774021 L20.3588387,37.9435053 L57.5663715,37.9435053 L57.5663715,42.1594503 L57.917386,42.1594503 L57.917386,43.5647653 L57.5663715,43.5647653 L57.5663715,50.5913404 L57.917386,50.5913404 L57.917386,51.9966554 L57.5663715,51.9966554 L57.5663715,59.0232304 L57.917386,59.0232304 L57.917386,60.4285454 L57.5663715,60.4285454 L57.5663715,67.4551205 L57.917386,67.4551205 L57.917386,68.8604355 L57.5663715,68.8604355 L57.5663715,75.8870105 L57.917386,75.8870105 L57.917386,77.2923256 L57.5663715,77.2923256 L57.5663715,84.3189006 L57.917386,84.3189006 L57.917386,85.7242156 L57.5663715,85.7242156 L57.5663715,92.7507907 L57.917386,92.7507907 L57.917386,94.1561057 L57.5663715,94.1561057 L57.5663715,101.182681 L57.917386,101.182681 L57.917386,102.587996 L57.5663715,102.587996 L57.5663715,109.614571 L57.917386,109.614571 L57.917386,111.019886 L57.5663715,111.019886 L57.5663715,118.046461 L57.917386,118.046461 L57.917386,119.451776 L57.5663715,119.451776 L57.5663715,126.478351 L57.917386,126.478351 L57.917386,127.883666 L57.5663715,127.883666 L57.5663715,134.910241 L57.917386,134.910241 L57.917386,136.315556 L57.5663715,136.315556 L57.5663715,143.342131 Z M56.1623137,35.1328753 L76.5200526,35.1328753 C76.9083799,35.1328753 77.2231813,35.4552903 77.2231813,35.8421159 L77.2231813,37.2342646 C77.2231813,37.6259674 76.9120406,37.9435053 76.5200526,37.9435053 L0.703128713,37.9435053 C0.314801448,37.9435053 0,37.6210903 0,37.2342646 L0,35.8421159 C0,35.4504131 0.311140698,35.1328753 0.703128713,35.1328753 L21.0608676,35.1328753 L21.0608676,2.81063002 L56.1623137,2.81063002 L56.1623137,35.1328753 Z M9.8284049,0.70924063 C9.8284049,0.317537846 10.1381277,0 10.5354879,0 L66.6876935,0 C67.0782046,0 67.3947764,0.322415001 67.3947764,0.70924063 L67.3947764,2.10138939 C67.3947764,2.49309217 67.0850537,2.81063002 66.6876935,2.81063002 L10.5354879,2.81063002 C10.1449767,2.81063002 9.8284049,2.48821502 9.8284049,2.10138939 L9.8284049,0.70924063 Z M28.0811569,151.774021 L50.5460823,151.774021 L50.5460823,160.908569 L28.0811569,160.908569 L28.0811569,151.774021 Z M35.1014461,160.908569 L43.5257931,160.908569 L43.5257931,177.069691 L35.1014461,177.069691 L35.1014461,160.908569 Z M38.6115907,177.42102 L40.0156485,177.42102 L40.0156485,235.390264 L38.6115907,235.390264 L38.6115907,177.42102 Z"/>
  </g>
</svg>
